<?xml version="1.0" encoding="UTF-8" standalone="no"?>
<!-- Created with Inkscape (http://www.inkscape.org/) -->

<svg
   xmlns:dc="http://purl.org/dc/elements/1.1/"
   xmlns:cc="http://creativecommons.org/ns#"
   xmlns:rdf="http://www.w3.org/1999/02/22-rdf-syntax-ns#"
   xmlns:svg="http://www.w3.org/2000/svg"
   xmlns="http://www.w3.org/2000/svg"
   xmlns:xlink="http://www.w3.org/1999/xlink"
   xmlns:sodipodi="http://sodipodi.sourceforge.net/DTD/sodipodi-0.dtd"
   xmlns:inkscape="http://www.inkscape.org/namespaces/inkscape"
   id="svg2"
   height="1000"
   width="1000"
   version="1.0"
   inkscape:version="0.48.0 r9654"
   sodipodi:docname="Original_Barnstar_Hires.svg">
  <sodipodi:namedview
     pagecolor="#ffffff"
     bordercolor="#666666"
     borderopacity="1"
     objecttolerance="10"
     gridtolerance="10"
     guidetolerance="10"
     inkscape:pageopacity="0"
     inkscape:pageshadow="2"
     inkscape:window-width="1366"
     inkscape:window-height="716"
     id="namedview3129"
     showgrid="false"
     inkscape:zoom="0.291"
     inkscape:cx="500"
     inkscape:cy="225.08591"
     inkscape:window-x="-8"
     inkscape:window-y="-8"
     inkscape:window-maximized="1"
     inkscape:current-layer="layer1" />
  <defs
     id="defs4">
    <linearGradient
       id="linearGradient4103">
      <stop
         id="stop4105"
         stop-color="#641C00"
         offset="0" />
      <stop
         id="stop4107"
         stop-color="#7D350E"
         offset="1" />
    </linearGradient>
    <linearGradient
       id="linearGradient4070">
      <stop
         id="stop4072"
         stop-color="#4E1300"
         offset="0" />
      <stop
         id="stop4074"
         stop-color="#863F19"
         offset="1" />
    </linearGradient>
    <linearGradient
       id="linearGradient4084"
       y2="-408.84"
       xlink:href="#linearGradient4070"
       gradientUnits="userSpaceOnUse"
       x2="927.48"
       y1="-419.73"
       x1="893.21" />
    <linearGradient
       id="linearGradient4109"
       y2="-101.51"
       xlink:href="#linearGradient4103"
       gradientUnits="userSpaceOnUse"
       x2="817.01"
       y1="-143.24"
       x1="284.55" />
    <linearGradient
       id="linearGradient4125"
       y2="-105.39"
       xlink:href="#linearGradient4070"
       gradientUnits="userSpaceOnUse"
       x2="1645.1"
       y1="-138.08"
       x1="1643.5" />
    <radialGradient
       id="radialGradient4233"
       gradientUnits="userSpaceOnUse"
       cy="1101.8"
       cx="1016.7"
       r="267.14">
      <stop
         id="stop4215"
         stop-color="#772E07"
         offset="0" />
      <stop
         id="stop4221"
         stop-color="#772E07"
         offset="0.70688" />
      <stop
         id="stop4223"
         stop-color="#A8623E"
         offset="0.81006" />
      <stop
         id="stop4235"
         stop-color="#8F4822"
         offset="0.8899" />
      <stop
         id="stop4217"
         stop-color="#772E07"
         offset="1" />
    </radialGradient>
    <linearGradient
       id="linearGradient4700"
       y2="-276.37"
       xlink:href="#linearGradient4070"
       gradientUnits="userSpaceOnUse"
       x2="1043.1"
       y1="-276.37"
       x1="1013.6" />
    <linearGradient
       id="linearGradient4708"
       y2="-17.691"
       xlink:href="#linearGradient4070"
       gradientUnits="userSpaceOnUse"
       x2="1370.7"
       y1="42.32"
       x1="1329" />
    <linearGradient
       id="linearGradient4716"
       y2="47.561"
       xlink:href="#linearGradient4070"
       gradientUnits="userSpaceOnUse"
       x2="1412.2"
       y1="32.22"
       x1="1403.7" />
    <linearGradient
       id="linearGradient4744"
       y2="89.073"
       xlink:href="#linearGradient4103"
       gradientUnits="userSpaceOnUse"
       x2="679.12"
       y1="54.615"
       x1="699.34" />
    <linearGradient
       id="linearGradient4752"
       y2="385.72"
       xlink:href="#linearGradient4103"
       gradientUnits="userSpaceOnUse"
       x2="811.04"
       y1="74.965"
       x1="712.1" />
    <linearGradient
       id="linearGradient4760"
       y2="-168.45"
       xlink:href="#linearGradient4103"
       gradientUnits="userSpaceOnUse"
       x2="1125.8"
       y1="-127.61"
       x1="1095.7" />
    <radialGradient
       id="radialGradient3998"
       gradientUnits="userSpaceOnUse"
       cy="1099.8"
       cx="1013.1"
       gradientTransform="translate(0,-947.638)"
       r="111.73">
      <stop
         id="stop4382-1"
         stop-color="#6B371C"
         offset="0" />
      <stop
         id="stop4390-0"
         stop-color="#3A1405"
         offset="0.61299" />
      <stop
         id="stop4388-8"
         stop-color="#6F391D"
         offset="0.82709" />
      <stop
         id="stop4384-5"
         stop-color="#4F1B07"
         offset="1" />
    </radialGradient>
    <linearGradient
       id="linearGradient3846"
       y2="480.78"
       xlink:href="#linearGradient4070"
       gradientUnits="userSpaceOnUse"
       x2="659.64"
       y1="465.83"
       x1="613.42" />
    <linearGradient
       id="linearGradient3854"
       y2="507.5"
       xlink:href="#linearGradient4070"
       gradientUnits="userSpaceOnUse"
       x2="790.39"
       y1="486.94"
       x1="768.97" />
  </defs>
  <metadata
     id="metadata7">
    <rdf:RDF>
      <cc:Work
         rdf:about="">
        <dc:format>image/svg+xml</dc:format>
        <dc:type
           rdf:resource="http://purl.org/dc/dcmitype/StillImage" />
        <dc:title></dc:title>
      </cc:Work>
    </rdf:RDF>
  </metadata>
  <g
     id="layer1"
     transform="matrix(0.5078348,0,0,0.5078348,-10.721721,466.73165)">
    <path
       id="path4162-4-6"
       fill="#331303"
       d="M1011.5,49.133c-59.96,0-108.57,48.645-108.57,108.64,0,59.99,48.61,108.6,108.57,108.6,60,0,108.7-48.61,108.7-108.6,0-59.992-48.7-108.64-108.7-108.64zm0,34.602c40.9,0,74.1,33.145,74.1,74.035s-33.2,74.03-74.1,74.03c-40.86,0-74-33.14-74-74.03s33.14-74.035,74-74.035z" />
    <path
       id="path2985-7"
       fill="#592206"
       d="M148.45-152.33s-114.76-18.13-15.39,72.716l511.13,380.75-193.35,613.21s-59.8,127.25,56.86,54.68l504.1-390.39,497.2,380.18s110.2,73.08,65.8-46.08l-196.3-614.41,497.5-375.35s125.4-113.65-32.5-81.642c-611.6,596.4-1171.4,533.08-1695,6.33z" />
    <path
       id="path2985"
       fill="#a8623e"
       d="M971.42,153.82l-187.73,621.18-635.24-1.7s-113.49-0.35-15.39,72.72l511.13,380.78-193.35,613.2s-59.8,145,56.86,54.7l504.1-390.4,497.2,380.2s109.9,92,65.8-46.1l-196.3-614.4,497.5-375.38s116.5-83.19-32.5-81.64l-606,6.27-190.1-620.85s-35.3-133.12-75.98,1.42zm37.98,864.08c11.9,0,22.8,2,33.4,6.8,35.9,16.2,53.2,59.4,39.7,96.7-9.3,25.6-34.7,46.8-61.8,50.8-3.4,0.5-13.7,0.9-16.4,0.7-26.53-2.5-49.93-16.1-62.83-38.7-6.14-10.8-9.45-25.8-9.44-39,0.03-28.2,17.34-55.4,42.63-68.9,10.59-5.6,21.91-8.3,34.74-8.4z"
       transform="translate(0,-947.638)" />
    <path
       id="path4648"
       fill="url(#linearGradient4708)"
       d="M1288.8,54.209l312.5-114.92-295.6,80.782" />
    <path
       id="path4620"
       fill="url(#linearGradient4700)"
       d="M1043.1-174.15l-31.3-328.03,4.1,355.96" />
    <path
       id="path4634"
       fill="#772e07"
       d="M709.71,17.696l-269.5-68.685,291,104.69" />
    <path
       id="path4640"
       fill="#772e07"
       d="M999.53-146.07l2.77-355.96-29.77,327.73" />
    <path
       id="path4668"
       fill="#7a310a"
       d="M788.2,389.22l-128.36,251.31,169.7-260.32" />
    <path
       id="path4672"
       fill="url(#linearGradient4744)"
       d="M726.34,69.553l-288.98-111.53,250.85,127.99" />
    <path
       id="path4656"
       fill="#6b2100"
       d="M1183.6,385.26l184.2,274.36-144.8-267.49" />
    <path
       id="path4614"
       fill="url(#linearGradient4716)"
       d="M1326.6,88.14l277.4-139.82-310.4,121.53" />
    <path
       id="path4660"
       fill="#641c00"
       d="M1163.7,433.99l196.5,231.31-190.2-270.61" />
    <path
       id="path4664"
       fill="url(#linearGradient3854)"
       d="M843,390.06l-175.56,256.05,179.64-214.13" />
    <path
       id="path4054"
       fill="url(#linearGradient4109)"
       d="M809.75-133.51l-637.69-1.69,107.03,36.875,556.07,1.468" />
    <path
       id="path4046"
       fill="url(#linearGradient4084)"
       d="M835.16-96.857l168.54-557.68v-120.72l-193.95,641.75,25.41,36.653z" />
    <path
       id="path4618"
       fill="#772e07"
       d="M972.53-174.3c-117.8,12.49-216.82,87.914-262.82,192l21.5,36.003c38.2-113.14,143.35-195.42,268.32-199.77l-27-28.23z" />
    <path
       id="path4050"
       fill="#7a310a"
       d="M1207.5-135.04l-195.7-639.16v129.16l167.4,546.87,28.3-36.871z" />
    <path
       id="path4044"
       fill="url(#linearGradient4125)"
       d="M1179.2-98.169l556.2-5.751,109.4-37.75-637.3,6.63-28.3,36.871z" />
    <path
       id="path4068"
       fill="#6b2100"
       d="M1286.1,243.55l175,547.87,72.4,102.41-202.5-633.87" />
    <path
       id="path4042"
       fill="#7a310a"
       d="M1331,259.96l527-397.6-122.7,42.283-449.2,338.91" />
    <path
       id="path4644"
       fill="url(#linearGradient4760)"
       d="M1305.7,20.068c-45.3-104.94-144.4-181.23-262.6-194.22l-27.2,27.93c127.1,2.52,234.4,85.684,272.9,200.43" />
    <path
       id="path4652"
       fill="#6b2100"
       d="M1223,392.13c67-59.55,109.3-146.39,109.3-243.13,0-20.79-2-41.15-5.7-60.86l-33-18.287c6.8,24.845,10.5,50.997,10.5,78.007,0,97.48-47.4,183.88-120.5,237.4l39.4,6.87z" />
    <path
       id="path4060"
       fill="#7a310a"
       d="M729.41,245.67l-450.35-335.46-119.84-41.316,528.28,393.53" />
    <path
       id="path4040"
       fill="url(#linearGradient3846)"
       d="M687.5,262.42l-201.16,637.85,68.6-101.38,174.47-553.22" />
    <path
       id="path4616"
       fill="url(#linearGradient4752)"
       d="M688.21,86.008c-4,20.382-6.1,41.442-6.1,62.992,0,95.18,40.91,180.77,106.09,240.22l41.34-9.01c-69.21-53.81-113.74-137.88-113.74-232.35,0-27.11,3.67-53.372,10.54-78.307l-38.13,16.455z" />
    <path
       id="path4064"
       fill="#7a310a"
       d="M1008.1,456.05l-444.16,343.94-72.16,106.65,517.92-401.06" />
    <path
       id="path2985-1"
       fill="#6c2301"
       d="M1009.7,505.58l521.3,398.72-74.4-105.22-448.5-343.03" />
    <path
       id="path4162"
       fill="url(#radialGradient4233)"
       d="M1009.5,828.84c-147.19,0-266.53,119.35-266.53,266.56,0,147.2,119.34,266.6,266.53,266.6,147.2,0,266.6-119.4,266.6-266.6,0-147.21-119.4-266.56-266.6-266.56zm0,94.35c95.1,0,172.3,77.11,172.3,172.21s-77.2,172.2-172.3,172.2c-95.08,0-172.19-77.1-172.19-172.2s77.11-172.21,172.19-172.21z"
       transform="translate(0,-947.638)" />
    <path
       id="path4162-0"
       fill="#641c00"
       d="M847.08,431.98c47.27,26.8,101.92,42.13,160.12,42.13,56.8,0,110.1-14.55,156.5-40.12l6.3-39.3c-46.1,29.93-101,47.32-160.1,47.32-61.96,0-119.47-19.19-166.9-51.95l4.08,41.92z" />
    <path
       id="path4162-4-6-0"
       fill="url(#radialGradient3998)"
       d="M1009.5,36.018c-61.68,0-111.69,50.04-111.69,111.75s50.01,111.72,111.69,111.72c61.7,0,111.8-50.01,111.8-111.72,0-61.712-50.1-111.75-111.8-111.75zm0,35.594c42.1,0,76.2,34.098,76.2,76.158s-34.1,76.15-76.2,76.15c-42.03,0-76.12-34.09-76.12-76.15s34.09-76.158,76.12-76.158z" />
    <g
       transform="matrix(8.695368,0,0,8.1121425,-840.70714,-2254.6662)"
       id="g5206"
       style="fill:#28170b">
      <path
         inkscape:connector-curvature="0"
         sodipodi:nodetypes="csssssccccssssssssssssssssscsssssssssssssssssscsssssssssscssssssssssssssssccssc"
         style="fill:#28170b;fill-opacity:1"
         d="m 201.72792,394.29691 c -2.65885,-5.22192 -3.10999,-13.47347 -0.95641,-17.49338 1.18555,-2.21296 2.10172,-6.62566 2.49145,-12 0.33901,-4.675 1.53206,-11.64857 2.65121,-15.49682 2.38726,-8.20871 2.58839,-13.22889 0.61795,-15.42444 -4.40947,-4.91325 -11.55204,-20.24097 -12.85141,-27.57874 -0.58437,-3.3 -1.88807,-6.929 -2.8971,-8.06445 -1.27209,-1.43145 -4.47462,-1.05066 -2.06993,-4.55139 1.15469,-2.34002 0.97099,-4.48232 3.23657,-8.63856 2.00111,-2.85266 2.16041,-3.49816 2.99874,-6.12757 0,-0.55 0.15941,-1.57931 0.53253,-2.18537 1.17378,-1.90657 1.41816,-6.17524 -1.45012,-10.64139 -2.81831,-4.38834 -4.74991,-5.52165 -3.40217,-9.51335 0.74845,-2.21674 2.70821,-3.57103 3.3075,-4.755 0.85688,-1.69288 -0.85319,-4.31783 -14.85074,-11.00961 -11.64667,-5.56791 -13.20266,-6.05635 -15.52574,-10.64073 -3.15138,-6.21895 -7.0532,-18.6219 -7.0532,-21.15171 0,-2.03526 2.24353,-6.29416 4.04458,-6.29416 0.56014,0 2.28287,-2.71713 2.9023,-3.95463 1.07331,-2.14427 2.42538,-2.24972 1.88449,0.31689 -0.79042,3.75065 -1.75683,7.76438 0.65763,6.10775 5.6442,-3.87265 2.99407,-0.70408 1.32574,1.97724 -0.92533,1.48718 -2.6603,2.8424 -3.6228,3.16829 -3.1547,1.06814 -1.50488,3.46 5.85401,14.85249 3.02427,4.68195 4.60388,4.61625 11.12057,6.89595 18.45328,6.45541 19.63916,8.16744 21.81055,7.3342 1.31418,-0.50429 0.50871,-2.8424 -1.88951,-5.74076 -0.73357,-0.88655 -1.60566,-1.44344 -1.91935,-1.93562 -0.45665,-0.60059 -1.22113,-0.81506 -1.39198,-1.56199 -0.22633,-0.98946 1.48123,-1.3751 1.17337,-2.99837 -0.60018,-3.16471 -0.86316,-2.4344 -2.59287,-5.61451 -1.22606,-2.25414 -1.60818,-4.44156 1.48803,-7.20802 3.62125,-3.23558 11.40712,-5.09364 14.57583,-3.3978 3.01382,1.61295 6.01321,7.76816 6.01761,11.52316 0.002,1.75504 -0.24074,3.02716 0.30926,3.36708 2.08638,1.28945 2.00512,6.59173 -1.24492,8.0375 -4.49168,1.9981 -1.47883,2.39931 -0.30299,2.85918 0.825,0.32265 3.03941,2.69739 4.68941,4.58271 1.65,1.88532 4.09118,5.94495 6.58231,8.7899 2.49114,2.84496 5.27129,5.41862 6.17812,7.41688 0.90683,1.99825 4.27299,6.28467 6.55439,8.13642 2.28141,1.85174 6.22372,4.63013 9.06936,7.02299 2.84563,2.39287 6.17121,5.41767 7.46734,6.0273 1.55123,0.72962 4.85385,3.92784 7.42188,7.52227 4.82925,6.75944 3.72365,9.07028 2.24355,7.03152 -2.5997,-3.58096 -3.58512,-3.64723 -3.79643,-0.0209 -0.16608,2.85024 -1.22508,5.87825 -1.2405,1.51555 -0.33109,3.24502 -1.26009,-1.34262 -1.16617,-2.92764 0.27117,-4.51321 -2.91044,-6.55765 -4.26062,-5.39468 -1.78268,1.53552 -2.25786,4.26421 -2.19473,-1.17634 0.0229,-1.99256 -0.65353,-3.13612 -7.32688,-6.49141 -4.41175,-2.21818 -9.81175,-5.65057 -12,-7.62752 -2.18825,-1.97696 -3.97864,-3.21061 -3.97864,-2.74145 0,0.46916 -1.51775,-1.39098 -3.37277,-4.13364 -1.85502,-2.74266 -4.26401,-5.78416 -5.35331,-6.75889 -1.94906,-1.74406 -1.99073,-1.66455 -2.62013,5 -1.09122,11.55464 -0.82926,14.34855 1.65754,17.67785 2.32338,3.11052 5.53926,5.74884 4.98127,8.16025 -1.36156,1.33998 -0.60415,7.45304 -1.23342,14.65588 -0.63802,7.30304 -1.29009,13.95326 -1.44903,14.77826 -0.15894,0.825 -0.62112,3.3 -1.02706,5.5 -0.40595,2.2 -1.42455,6.025 -2.26356,8.5 -1.337,3.94401 -1.35831,5.85908 -0.1725,15.5 1.17439,9.54808 1.58572,10.96081 3.11635,10.70309 2.86633,-0.48262 3.11159,2.44631 0.73662,8.79691 -1.22601,3.27832 -1.96668,6.64445 -1.64594,7.48029 0.85916,2.23894 -0.69609,1.84899 -3.18284,-0.79803 -2.06007,-2.19284 -2.33767,-3.60105 -3.08157,-15.63226 -0.15688,-2.5373 -1.73337,0.21794 -3.11837,5.45 -0.72797,2.75 -2.41305,6.74785 -3.74463,8.88411 -2.04429,3.27966 -2.23586,4.23017 -1.23098,6.10779 0.98534,1.84113 0.83002,2.92945 -0.9028,6.32605 -1.15108,2.25631 -2.1245,5.1328 -2.16315,6.39221 -0.0387,1.25941 -0.42047,3.18686 -0.84847,4.28322 -0.71839,1.84025 -0.89526,1.76343 -2.30232,-1 z m 8.06323,-90.39868 c 0,-0.55 -0.31872,-1.88388 -0.90118,-1.88388 -0.58246,0 -0.7809,1.23918 -0.44098,1.78918 0.79194,1.28138 1.34216,1.37608 1.34216,0.0947 z"
         id="path2194" />
      <path
         inkscape:connector-curvature="0"
         sodipodi:nodetypes="cssccssssssccsssssssssccccssssssssssssssssssssssssssssscccssssssssssssssssc"
         style="fill:#28170b;fill-opacity:1"
         d="m 240.87308,321.63902 c -0.55946,-0.56208 -1.63451,-2.11805 -2.00868,-2.88722 -0.37418,-0.76916 -1.26843,-2.47733 -1.98723,-3.98609 -1.00468,-2.10881 -1.32472,-3.17105 -1.6425,-3.17105 0.49112,0.99262 0.35921,1.90132 0.93729,2.86378 1.10832,2.88281 0.82189,3.72026 0.63898,3.86606 -0.51434,0.41 -2.00846,-2.55496 -2.92323,-4.14801 -1.01637,-1.76997 -2.06656,-4.72197 -3.82709,-10.75761 -0.22436,-0.76917 -0.46595,-2.12463 -0.53688,-3.01213 -0.0709,-0.8875 -0.26468,-2.09774 -0.43056,-2.6894 -0.54758,-1.95309 -1.0027,-4.96229 -1.13775,-5.78869 -0.11101,-0.67927 -0.15005,-2.15188 -0.29321,-2.76088 -0.10047,-1.25158 -0.70938,-4.50365 -0.94456,-4.12449 0.0356,0.99334 0.5483,5.38526 0.69154,6.38241 0.49839,3.46938 0.24824,4.22048 -1.4792,1.22457 -0.35923,-0.62302 -0.58478,-1.41707 -0.59166,-1.71619 -0.007,-0.29912 -0.20073,-0.70499 -0.43075,-0.90194 -0.23002,-0.19695 -0.47745,-0.72676 -0.54984,-1.17737 -0.0724,-0.4506 -0.27093,-1.13607 -0.44118,-1.52327 -0.38315,-0.8714 -0.82467,-3.61439 -0.63198,-3.92619 0.078,-0.12627 0.0505,-0.34636 -0.0611,-0.48909 -0.75579,-0.96612 -0.6109,-11.29774 -0.57681,-13.18249 0.0139,-0.77086 0.44843,-1.65755 0.34814,-2.46023 0.0811,-1.34369 0.34483,-2.21437 0.6272,-3.559 0.16578,-0.38004 0.42037,-0.7404 0.43295,-1.33207 -0.0782,-0.99873 0.34019,-0.79359 -0.0213,-1.96172 -0.36484,-0.36483 -0.43122,0.52801 -0.43122,1.27005 0,0.36997 -0.18348,1.03556 -0.40774,1.27985 -0.48541,0.52879 -1.25259,4.45148 -1.25259,5.39391 0,0.36307 -0.1432,0.93703 -0.31821,1.27546 -0.17501,0.33844 -0.41422,1.46035 -0.53157,2.49312 -0.11735,1.03278 -0.26402,1.92843 -0.32593,1.99034 -0.0619,0.0619 -0.79809,-0.93463 -1.03828,-1.152 -0.65458,-0.59238 -0.44625,0.2935 -0.4219,1.89901 0.0114,0.75056 -0.16668,1.70935 -0.26288,1.86501 -0.25531,0.41308 -1.22211,-1.21777 -1.42044,-2.38799 -0.15048,-0.88792 -0.20364,0.032 -0.92089,-0.0286 -0.73062,-0.0618 -0.79777,-1.1196 -1.67236,-2.96631 -0.50115,-1.05818 -1.03959,-2.35063 -1.19654,-2.87212 -0.15694,-0.52148 -0.52776,-1.27266 -0.82404,-1.66929 -0.82092,-1.09894 -1.67387,-3.09992 -2.20239,-5.67236 -0.13051,-0.63523 -0.41939,0.55491 -0.6245,1.08941 -0.21032,0.54807 -0.46556,-0.72063 -0.9449,-1.8935 -1.00935,-2.46975 -1.64714,-5.34663 -1.01186,-8.37541 0.099,-0.472 0.47108,-0.94658 0.23328,-1.28609 -0.60009,-0.85676 -0.30464,-6.49426 0.38,-7.25078 0.1929,-0.21316 0.35377,-0.57357 0.35749,-0.80092 0.0109,-0.66806 0.68353,-1.56821 2.28913,-1.67877 6.04373,-0.41617 8.25105,-2.31495 14.61367,-6.61106 0.85987,-0.58059 1.87212,-1.24398 2.24945,-1.47419 0.37732,-0.2302 1.11145,-0.7385 1.63138,-1.12954 0.51994,-0.39105 1.03274,-0.71099 1.13957,-0.71099 0.10684,0 0.94959,-0.43569 1.87279,-0.96818 0.9232,-0.53251 1.7898,-0.96819 1.92577,-0.96819 0.13597,0 0.86539,-0.29207 1.62093,-0.64904 1.17198,-0.55374 2.10247,-0.83198 4.1269,-0.94781 l 2.53586,-0.0271 0.99258,0.928 c 0.31135,0.33595 0.80232,1.26349 1.11095,2.23599 0.50583,1.59391 0.48895,2.72576 0.38452,5.10889 -0.0628,1.43305 -0.26523,3.32101 -0.44987,4.19547 -0.18463,0.87445 -0.4793,2.26765 -0.65483,3.09598 -2.07222,9.77932 -2.80392,14.15185 -3.08541,18.01299 -0.0647,0.8875 -0.15143,2.30954 -0.33535,3.49288 -0.18393,1.18334 -0.32868,2.29675 -0.32167,2.47426 0.0842,2.13123 0.0603,8.55016 -0.0413,11.07436 -0.0804,1.99755 -0.16444,3.4909 -0.0309,3.74047 0.12478,0.23317 0.23866,2.91397 0.27069,6.37226 0.0304,3.28336 0.12573,6.08375 0.21184,6.22308 0.0861,0.13932 0.13633,0.90519 0.1116,1.70193 -0.0247,0.79674 -0.16871,2.5041 -0.0347,3.7466 0.27301,2.53135 0.72853,8.30269 1.21418,15.38338 0.17856,2.60334 0.57825,5.22262 0.65051,5.72554 0.11986,0.83422 0.55737,3.1704 0.13316,3.1704 -0.2685,0 -1.86717,-1.90988 -2.45457,-2.50005 z"
         id="path3229" />
      <path
         inkscape:connector-curvature="0"
         sodipodi:nodetypes="cssccssssssccsssssssssccccssssssssssssssssssssssssssssscccssssssssssssssssc"
         style="fill:#28170b;fill-opacity:1"
         d="m 223.76605,321.52657 c -0.31713,-0.60369 -0.92654,-2.27487 -1.13864,-3.101 -0.21211,-0.82611 -0.71902,-2.66076 -1.12648,-4.28123 -0.56951,-2.26496 -0.75093,-3.40585 -0.93107,-3.40585 0.2784,1.06612 0.20362,2.0421 0.53131,3.07582 0.62827,3.09627 0.4659,3.99573 0.36222,4.15232 -0.29156,0.44036 -1.13852,-2.74414 -1.65707,-4.45514 -0.57613,-1.90103 -1.17145,-5.07161 -2.16942,-11.55415 -0.12718,-0.82612 -0.26413,-2.28195 -0.30434,-3.23516 -0.0402,-0.95322 -0.15003,-2.25307 -0.24406,-2.88854 -0.3104,-2.0977 -0.56839,-5.32972 -0.64495,-6.21731 -0.0629,-0.72956 -0.0851,-2.31121 -0.16621,-2.9653 -0.057,-1.34426 -0.40212,-4.83712 -0.53543,-4.42989 0.0202,1.06689 0.31081,5.78401 0.39201,6.85499 0.28251,3.72627 0.14071,4.53298 -0.8385,1.31525 -0.20364,-0.66916 -0.33149,-1.522 -0.33539,-1.84327 -0.004,-0.32127 -0.11379,-0.75719 -0.24418,-0.96872 -0.13039,-0.21154 -0.27064,-0.78057 -0.31168,-1.26455 -0.041,-0.48396 -0.15358,-1.22019 -0.25009,-1.63606 -0.21719,-0.93592 -0.46747,-3.88201 -0.35824,-4.2169 0.0442,-0.13562 0.0286,-0.37201 -0.0346,-0.5253 -0.42842,-1.03766 -0.34629,-12.13428 -0.32697,-14.15858 0.008,-0.82794 0.2542,-1.78028 0.19735,-2.6424 0.046,-1.44318 0.19547,-2.37833 0.35553,-3.82252 0.094,-0.40818 0.23829,-0.79522 0.24543,-1.4307 -0.0444,-1.07268 0.19284,-0.85235 -0.0121,-2.10698 -0.20681,-0.39184 -0.24444,0.56711 -0.24444,1.36409 0,0.39737 -0.10401,1.11224 -0.23113,1.37462 -0.27516,0.56794 -0.71005,4.78108 -0.71005,5.7933 0,0.38995 -0.0812,1.00641 -0.18038,1.3699 -0.0992,0.3635 -0.2348,1.56848 -0.30132,2.67772 -0.0665,1.10925 -0.14966,2.07122 -0.18476,2.13771 -0.0351,0.0665 -0.4524,-1.00383 -0.58856,-1.2373 -0.37105,-0.63624 -0.25296,0.31523 -0.23916,2.03962 0.006,0.80614 -0.0945,1.83592 -0.14901,2.00311 -0.14473,0.44366 -0.69277,-1.30794 -0.80519,-2.56481 -0.0853,-0.95367 -0.11544,0.0344 -0.52202,-0.0308 -0.41416,-0.0663 -0.45222,-1.2025 -0.94799,-3.18595 -0.28409,-1.13653 -0.58931,-2.52468 -0.67827,-3.08478 -0.089,-0.5601 -0.29917,-1.3669 -0.46712,-1.7929 -0.46535,-1.18031 -0.94885,-3.32945 -1.24845,-6.09236 -0.074,-0.68227 -0.23773,0.596 -0.354,1.17007 -0.11922,0.58866 -0.26391,-0.77398 -0.53563,-2.0337 -0.57216,-2.65262 -0.93369,-5.74252 -0.57358,-8.99556 0.0561,-0.50695 0.26704,-1.01667 0.13224,-1.38132 -0.34017,-0.9202 -0.17269,-6.97512 0.2154,-7.78766 0.10935,-0.22894 0.20054,-0.61604 0.20265,-0.86022 0.006,-0.71753 0.38747,-1.68433 1.29762,-1.80307 3.42595,-0.44699 4.67719,-2.48636 8.2839,-7.10057 0.48743,-0.62358 1.06123,-1.33609 1.27513,-1.58335 0.21388,-0.24724 0.63003,-0.79318 0.92476,-1.21317 0.29473,-0.42001 0.58542,-0.76364 0.64598,-0.76364 0.0606,0 0.53828,-0.46795 1.06161,-1.03987 0.52332,-0.57194 1.01456,-1.03988 1.09164,-1.03988 0.0771,0 0.49055,-0.31369 0.91884,-0.69709 0.66435,-0.59474 1.19181,-0.89359 2.33937,-1.01799 l 1.43748,-0.0291 0.56266,0.99671 c 0.17649,0.36083 0.4548,1.35705 0.62975,2.40156 0.28673,1.71192 0.27717,2.92758 0.21797,5.48717 -0.0356,1.53916 -0.15035,3.56691 -0.25501,4.50612 -0.10466,0.9392 -0.2717,2.43556 -0.3712,3.32522 -1.17466,10.50342 -1.58943,15.19971 -1.749,19.34675 -0.0367,0.95321 -0.0858,2.48054 -0.19009,3.7515 -0.10427,1.27096 -0.18632,2.46682 -0.18235,2.65747 0.0477,2.28903 0.0342,9.18325 -0.0234,11.89435 -0.0455,2.14546 -0.0932,3.74938 -0.0175,4.01743 0.0707,0.25044 0.13528,3.12973 0.15344,6.84409 0.0172,3.52647 0.0713,6.53422 0.12008,6.68386 0.0488,0.14964 0.0773,0.97222 0.0633,1.82795 -0.014,0.85574 -0.0956,2.68952 -0.0197,4.02402 0.15476,2.71878 0.41297,8.91745 0.68827,16.52243 0.10122,2.7961 0.32779,5.60932 0.36875,6.14948 0.0679,0.89599 0.31595,3.40515 0.0755,3.40515 -0.1522,0 -1.05842,-2.0513 -1.3914,-2.68517 z"
         id="path4227" />
    </g>
  </g>
</svg>
